<?xml version="1.0" standalone="no"?>
<!DOCTYPE svg PUBLIC "-//W3C//DTD SVG 20010904//EN"
 "http://www.w3.org/TR/2001/REC-SVG-20010904/DTD/svg10.dtd">
<svg version="1.0" xmlns="http://www.w3.org/2000/svg"
 width="500.000000pt" height="500.000000pt" viewBox="0 0 500.000000 500.000000"
 preserveAspectRatio="xMidYMid meet">

<g transform="translate(0.000000,500.000000) scale(0.100000,-0.100000)"
fill="#000000" stroke="none">
<path d="M0 2500 l0 -2500 2500 0 2500 0 0 2500 0 2500 -2500 0 -2500 0 0
-2500z m2870 1777 c437 -98 807 -332 1068 -674 290 -381 418 -859 357 -1330
-55 -421 -233 -775 -541 -1073 -323 -313 -724 -486 -1174 -506 -808 -38 -1545
466 -1799 1231 -75 225 -85 297 -85 580 0 223 2 261 22 354 54 246 162 496
300 691 37 52 116 146 177 208 267 277 587 451 965 526 117 23 131 24 370 21
200 -2 238 -5 340 -28z"/>
<path d="M2405 4134 c-586 -39 -1096 -371 -1359 -884 -143 -280 -200 -551
-177 -852 18 -236 67 -420 161 -613 345 -702 1138 -1062 1889 -859 686 186
1177 793 1208 1494 16 357 -79 696 -278 997 -94 140 -293 342 -429 432 -216
144 -455 237 -690 270 -89 12 -255 20 -325 15z m435 -67 c272 -65 484 -171
697 -351 432 -362 642 -971 528 -1532 -129 -635 -647 -1141 -1285 -1256 -137
-25 -391 -29 -515 -10 -596 96 -1094 510 -1279 1063 -69 205 -80 278 -80 529
-1 209 1 233 26 335 29 123 83 276 134 376 124 247 359 502 599 649 178 109
405 189 640 224 17 2 120 3 230 1 172 -3 215 -7 305 -28z"/>
<path d="M2105 3673 c-100 -13 -204 -70 -277 -152 -42 -47 -47 -58 -53 -116
-16 -149 48 -325 136 -371 17 -8 33 -13 36 -11 2 3 0 22 -6 44 -16 57 -13 182
5 236 22 65 91 139 156 167 112 48 249 19 341 -72 l44 -44 32 37 c76 92 236
128 349 79 63 -27 134 -101 155 -163 13 -36 16 -38 16 -15 1 42 -20 129 -42
173 -49 97 -116 152 -228 186 -66 20 -67 20 -122 1 -58 -21 -147 -76 -147 -92
0 -18 -17 -11 -50 20 -77 71 -218 110 -345 93z"/>
<path d="M2815 3660 c75 -30 155 -98 189 -159 100 -185 62 -447 -77 -536 -22
-14 -48 -20 -87 -19 -107 2 -181 60 -327 255 -75 100 -143 156 -217 179 -39
13 -153 9 -176 -5 -7 -4 12 -23 52 -50 117 -78 227 -215 308 -381 80 -162 111
-365 91 -585 -7 -72 -10 -133 -8 -135 7 -7 264 152 328 203 177 141 306 327
361 520 28 100 30 257 4 353 -60 219 -216 358 -425 375 l-66 6 50 -21z"/>
<path d="M1728 3345 c-22 -65 -38 -157 -38 -214 0 -80 36 -225 78 -314 117
-249 280 -401 645 -600 l67 -37 0 39 c0 55 -25 81 -148 150 -168 94 -243 166
-283 271 -26 69 -24 105 7 137 23 23 31 25 72 19 128 -19 158 -19 177 0 17 18
16 20 -29 61 -58 52 -130 88 -221 109 -104 24 -153 43 -191 76 -65 58 -101
145 -113 273 l-7 80 -16 -50z"/>
<path d="M2725 3279 c-36 -32 -60 -92 -49 -125 19 -59 30 -76 59 -94 94 -58
215 6 215 115 0 79 -59 135 -142 135 -39 0 -54 -6 -83 -31z"/>
<path d="M2150 2654 c24 -28 115 -78 192 -105 45 -15 84 -27 85 -25 2 2 -1 15
-7 28 -15 32 -53 54 -110 63 -25 4 -73 18 -108 30 -40 15 -59 18 -52 9z"/>
<path d="M2138 2573 c44 -56 138 -126 226 -167 103 -48 116 -52 116 -27 0 42
-46 76 -158 119 -60 23 -127 55 -148 70 -66 47 -70 48 -36 5z"/>
<path d="M1849 2001 c-31 -25 -21 -35 18 -16 37 19 63 11 63 -20 0 -25 -15
-41 -45 -47 -22 -5 -12 -12 36 -22 39 -8 49 -66 14 -80 -25 -9 -55 7 -84 46
-16 22 -32 35 -35 29 -17 -27 59 -101 104 -101 35 0 60 23 60 56 0 19 5 24 25
24 24 0 25 -3 25 -55 0 -42 3 -55 15 -55 13 0 15 20 15 120 l0 121 105 -3 c88
-2 108 -5 122 -21 21 -22 8 -50 -26 -55 -45 -7 -12 -74 44 -88 13 -3 38 -1 55
4 l30 11 0 -45 c0 -32 4 -44 15 -44 13 0 15 20 15 120 l0 120 81 0 80 0 -3
-42 c-3 -38 -6 -43 -29 -46 -15 -2 -34 4 -43 13 -9 9 -20 13 -26 10 -6 -4 6
-30 30 -63 64 -90 87 -115 99 -108 7 5 -4 26 -30 59 l-41 52 25 10 c14 6 46 9
71 7 l46 -4 0 -64 c0 -50 3 -64 15 -64 13 0 15 20 15 120 l0 121 108 -3 107
-3 3 -32 3 -33 -80 0 c-44 0 -83 -5 -86 -10 -7 -11 31 -70 46 -70 5 0 9 11 9
25 0 24 3 25 55 25 l55 0 0 -70 c0 -40 4 -70 10 -70 6 0 10 46 10 119 l0 119
40 0 40 1 0 -50 c0 -37 -4 -49 -15 -49 -21 0 -19 -33 3 -53 24 -22 30 -21 34
6 3 19 9 22 48 22 l45 0 3 -57 c5 -105 22 -61 22 58 0 107 1 116 20 121 71 19
-42 23 -590 23 -400 0 -610 -3 -610 -10 0 -5 9 -10 20 -10 17 0 20 -7 20 -49
0 -55 -13 -65 -62 -48 -32 10 -32 11 -16 37 11 17 10 25 -2 48 -20 35 -67 41
-101 13z m541 -53 c0 -34 -6 -58 -17 -70 -18 -20 -73 -24 -91 -6 -16 16 -15
28 3 28 21 0 38 38 31 71 -5 28 -4 29 34 29 l40 0 0 -52z m290 7 l0 -45 -40 0
c-40 0 -40 0 -40 38 0 47 4 52 47 52 33 0 33 -1 33 -45z m470 -5 l0 -50 -50 0
-50 0 0 43 c0 24 3 47 7 50 3 4 26 7 50 7 l43 0 0 -50z"/>
<path d="M2141 1924 c-25 -32 -26 -52 -6 -81 17 -24 52 -33 83 -22 33 13 27
29 -8 22 -30 -5 -70 17 -70 39 0 19 42 49 61 43 13 -4 19 -2 19 9 0 27 -55 20
-79 -10z"/>
</g>
</svg>
